<mxfile host="app.diagrams.net" modified="2023-05-22T13:16:45.521Z" agent="Mozilla/5.0 (Windows NT 10.0; Win64; x64; rv:109.0) Gecko/20100101 Firefox/113.0" etag="GdFBuLtzKV7UweppLwyd" version="21.3.2">
  <diagram name="Seite-1" id="08nKIKsKSm6p65KdrYSy">
    <mxGraphModel dx="1430" dy="763" grid="1" gridSize="10" guides="1" tooltips="1" connect="1" arrows="1" fold="1" page="1" pageScale="1" pageWidth="827" pageHeight="1169" math="0" shadow="0">
      <root>
        <mxCell id="0" />
        <mxCell id="1" parent="0" />
        <mxCell id="X6diNBxR96MAvASZ91UW-2" value="SandboxGame" style="rounded=0;whiteSpace=wrap;html=1;" vertex="1" parent="1">
          <mxGeometry x="140" y="240" width="90" height="30" as="geometry" />
        </mxCell>
        <mxCell id="X6diNBxR96MAvASZ91UW-4" value="" style="endArrow=none;dashed=1;html=1;dashPattern=1 3;strokeWidth=2;rounded=0;" edge="1" parent="1" source="X6diNBxR96MAvASZ91UW-3">
          <mxGeometry width="50" height="50" relative="1" as="geometry">
            <mxPoint x="360" y="690" as="sourcePoint" />
            <mxPoint x="360" y="110" as="targetPoint" />
          </mxGeometry>
        </mxCell>
        <mxCell id="X6diNBxR96MAvASZ91UW-5" value="" style="endArrow=none;dashed=1;html=1;dashPattern=1 3;strokeWidth=2;rounded=0;" edge="1" parent="1" target="X6diNBxR96MAvASZ91UW-3">
          <mxGeometry width="50" height="50" relative="1" as="geometry">
            <mxPoint x="360" y="690" as="sourcePoint" />
            <mxPoint x="360" y="110" as="targetPoint" />
          </mxGeometry>
        </mxCell>
        <mxCell id="X6diNBxR96MAvASZ91UW-6" value="" style="shape=flexArrow;endArrow=classic;html=1;rounded=0;" edge="1" parent="1" source="X6diNBxR96MAvASZ91UW-2" target="X6diNBxR96MAvASZ91UW-19">
          <mxGeometry width="50" height="50" relative="1" as="geometry">
            <mxPoint x="380" y="250" as="sourcePoint" />
            <mxPoint x="350" y="255" as="targetPoint" />
            <Array as="points" />
          </mxGeometry>
        </mxCell>
        <mxCell id="X6diNBxR96MAvASZ91UW-32" value="sandbox.exe" style="rounded=0;whiteSpace=wrap;html=1;strokeColor=#314354;fillColor=#647687;fontColor=#ffffff;" vertex="1" parent="1">
          <mxGeometry x="205" y="60" width="120" height="60" as="geometry" />
        </mxCell>
        <mxCell id="X6diNBxR96MAvASZ91UW-33" value="engine.so / engine.dll" style="rounded=0;whiteSpace=wrap;html=1;strokeColor=#B20000;fillColor=#e51400;fontColor=#ffffff;" vertex="1" parent="1">
          <mxGeometry x="390" y="60" width="150" height="60" as="geometry" />
        </mxCell>
        <mxCell id="X6diNBxR96MAvASZ91UW-51" value="Container" style="swimlane;whiteSpace=wrap;html=1;startSize=23;" vertex="1" parent="1">
          <mxGeometry x="810" y="140" width="270" height="300" as="geometry" />
        </mxCell>
        <mxCell id="X6diNBxR96MAvASZ91UW-44" value="&lt;div&gt;String:&lt;/div&gt;&lt;div&gt;simple c string&lt;br&gt;&lt;/div&gt;" style="rounded=0;whiteSpace=wrap;html=1;" vertex="1" parent="X6diNBxR96MAvASZ91UW-51">
          <mxGeometry x="10" y="30" width="120" height="60" as="geometry" />
        </mxCell>
        <mxCell id="X6diNBxR96MAvASZ91UW-48" value="&lt;div&gt;DynamicArray:&lt;/div&gt;&lt;div&gt;simple std::vector like&lt;br&gt;&lt;/div&gt;" style="rounded=0;whiteSpace=wrap;html=1;" vertex="1" parent="X6diNBxR96MAvASZ91UW-51">
          <mxGeometry x="140" y="30" width="120" height="60" as="geometry" />
        </mxCell>
        <mxCell id="X6diNBxR96MAvASZ91UW-45" value="&lt;div&gt;Ref:&lt;/div&gt;&lt;div&gt;simple ref counted ptr&lt;br&gt;&lt;/div&gt;" style="rounded=0;whiteSpace=wrap;html=1;" vertex="1" parent="X6diNBxR96MAvASZ91UW-51">
          <mxGeometry x="10" y="100" width="120" height="60" as="geometry" />
        </mxCell>
        <mxCell id="X6diNBxR96MAvASZ91UW-49" value="&lt;div&gt;Dictonary:&lt;/div&gt;&lt;div&gt;simple std::map like&lt;br&gt;&lt;/div&gt;" style="rounded=0;whiteSpace=wrap;html=1;" vertex="1" parent="X6diNBxR96MAvASZ91UW-51">
          <mxGeometry x="140" y="100" width="120" height="60" as="geometry" />
        </mxCell>
        <mxCell id="X6diNBxR96MAvASZ91UW-56" value="Core" style="swimlane;whiteSpace=wrap;html=1;" vertex="1" parent="1">
          <mxGeometry x="430" y="410" width="360" height="315" as="geometry" />
        </mxCell>
        <mxCell id="X6diNBxR96MAvASZ91UW-36" value="Logger" style="swimlane;fontStyle=0;childLayout=stackLayout;horizontal=1;startSize=30;horizontalStack=0;resizeParent=1;resizeParentMax=0;resizeLast=0;collapsible=1;marginBottom=0;whiteSpace=wrap;html=1;" vertex="1" parent="X6diNBxR96MAvASZ91UW-56">
          <mxGeometry x="10" y="40" width="160" height="120" as="geometry" />
        </mxCell>
        <mxCell id="X6diNBxR96MAvASZ91UW-37" value="fatal()" style="text;strokeColor=none;fillColor=none;align=left;verticalAlign=middle;spacingLeft=4;spacingRight=4;overflow=hidden;points=[[0,0.5],[1,0.5]];portConstraint=eastwest;rotatable=0;whiteSpace=wrap;html=1;" vertex="1" parent="X6diNBxR96MAvASZ91UW-36">
          <mxGeometry y="30" width="160" height="30" as="geometry" />
        </mxCell>
        <mxCell id="X6diNBxR96MAvASZ91UW-38" value="error()" style="text;strokeColor=none;fillColor=none;align=left;verticalAlign=middle;spacingLeft=4;spacingRight=4;overflow=hidden;points=[[0,0.5],[1,0.5]];portConstraint=eastwest;rotatable=0;whiteSpace=wrap;html=1;" vertex="1" parent="X6diNBxR96MAvASZ91UW-36">
          <mxGeometry y="60" width="160" height="30" as="geometry" />
        </mxCell>
        <mxCell id="X6diNBxR96MAvASZ91UW-39" value="..." style="text;strokeColor=none;fillColor=none;align=left;verticalAlign=middle;spacingLeft=4;spacingRight=4;overflow=hidden;points=[[0,0.5],[1,0.5]];portConstraint=eastwest;rotatable=0;whiteSpace=wrap;html=1;" vertex="1" parent="X6diNBxR96MAvASZ91UW-36">
          <mxGeometry y="90" width="160" height="30" as="geometry" />
        </mxCell>
        <mxCell id="X6diNBxR96MAvASZ91UW-40" value="Assert" style="swimlane;fontStyle=0;childLayout=stackLayout;horizontal=1;startSize=30;horizontalStack=0;resizeParent=1;resizeParentMax=0;resizeLast=0;collapsible=1;marginBottom=0;whiteSpace=wrap;html=1;" vertex="1" parent="X6diNBxR96MAvASZ91UW-56">
          <mxGeometry x="185" y="40" width="160" height="120" as="geometry" />
        </mxCell>
        <mxCell id="X6diNBxR96MAvASZ91UW-41" value="STATIC_ASSERT()" style="text;strokeColor=none;fillColor=none;align=left;verticalAlign=middle;spacingLeft=4;spacingRight=4;overflow=hidden;points=[[0,0.5],[1,0.5]];portConstraint=eastwest;rotatable=0;whiteSpace=wrap;html=1;" vertex="1" parent="X6diNBxR96MAvASZ91UW-40">
          <mxGeometry y="30" width="160" height="30" as="geometry" />
        </mxCell>
        <mxCell id="X6diNBxR96MAvASZ91UW-42" value="ASSERT()" style="text;strokeColor=none;fillColor=none;align=left;verticalAlign=middle;spacingLeft=4;spacingRight=4;overflow=hidden;points=[[0,0.5],[1,0.5]];portConstraint=eastwest;rotatable=0;whiteSpace=wrap;html=1;" vertex="1" parent="X6diNBxR96MAvASZ91UW-40">
          <mxGeometry y="60" width="160" height="30" as="geometry" />
        </mxCell>
        <mxCell id="X6diNBxR96MAvASZ91UW-43" value="..." style="text;strokeColor=none;fillColor=none;align=left;verticalAlign=middle;spacingLeft=4;spacingRight=4;overflow=hidden;points=[[0,0.5],[1,0.5]];portConstraint=eastwest;rotatable=0;whiteSpace=wrap;html=1;" vertex="1" parent="X6diNBxR96MAvASZ91UW-40">
          <mxGeometry y="90" width="160" height="30" as="geometry" />
        </mxCell>
        <mxCell id="X6diNBxR96MAvASZ91UW-52" value="Renderer" style="swimlane;fontStyle=0;childLayout=stackLayout;horizontal=1;startSize=30;horizontalStack=0;resizeParent=1;resizeParentMax=0;resizeLast=0;collapsible=1;marginBottom=0;whiteSpace=wrap;html=1;" vertex="1" parent="X6diNBxR96MAvASZ91UW-56">
          <mxGeometry x="10" y="170" width="160" height="60" as="geometry" />
        </mxCell>
        <mxCell id="X6diNBxR96MAvASZ91UW-55" value="..." style="text;strokeColor=none;fillColor=none;align=left;verticalAlign=middle;spacingLeft=4;spacingRight=4;overflow=hidden;points=[[0,0.5],[1,0.5]];portConstraint=eastwest;rotatable=0;whiteSpace=wrap;html=1;" vertex="1" parent="X6diNBxR96MAvASZ91UW-52">
          <mxGeometry y="30" width="160" height="30" as="geometry" />
        </mxCell>
        <mxCell id="X6diNBxR96MAvASZ91UW-14" value="Application" style="swimlane;fontStyle=0;childLayout=stackLayout;horizontal=1;startSize=30;horizontalStack=0;resizeParent=1;resizeParentMax=0;resizeLast=0;collapsible=1;marginBottom=0;whiteSpace=wrap;html=1;" vertex="1" parent="X6diNBxR96MAvASZ91UW-56">
          <mxGeometry x="185" y="170" width="160" height="120" as="geometry" />
        </mxCell>
        <mxCell id="X6diNBxR96MAvASZ91UW-15" value="&lt;div&gt;create(Game*)&lt;/div&gt;" style="text;strokeColor=none;fillColor=none;align=left;verticalAlign=middle;spacingLeft=4;spacingRight=4;overflow=hidden;points=[[0,0.5],[1,0.5]];portConstraint=eastwest;rotatable=0;whiteSpace=wrap;html=1;" vertex="1" parent="X6diNBxR96MAvASZ91UW-14">
          <mxGeometry y="30" width="160" height="30" as="geometry" />
        </mxCell>
        <mxCell id="X6diNBxR96MAvASZ91UW-18" value="run()" style="text;strokeColor=none;fillColor=none;align=left;verticalAlign=middle;spacingLeft=4;spacingRight=4;overflow=hidden;points=[[0,0.5],[1,0.5]];portConstraint=eastwest;rotatable=0;whiteSpace=wrap;html=1;" vertex="1" parent="X6diNBxR96MAvASZ91UW-14">
          <mxGeometry y="60" width="160" height="30" as="geometry" />
        </mxCell>
        <mxCell id="X6diNBxR96MAvASZ91UW-24" value="m_platform: Platform" style="text;strokeColor=none;fillColor=none;align=left;verticalAlign=middle;spacingLeft=4;spacingRight=4;overflow=hidden;points=[[0,0.5],[1,0.5]];portConstraint=eastwest;rotatable=0;whiteSpace=wrap;html=1;" vertex="1" parent="X6diNBxR96MAvASZ91UW-14">
          <mxGeometry y="90" width="160" height="30" as="geometry" />
        </mxCell>
        <mxCell id="X6diNBxR96MAvASZ91UW-57" value="Platform" style="swimlane;whiteSpace=wrap;html=1;" vertex="1" parent="1">
          <mxGeometry x="615" y="140" width="175" height="250" as="geometry" />
        </mxCell>
        <mxCell id="X6diNBxR96MAvASZ91UW-27" value="Platform" style="swimlane;fontStyle=0;childLayout=stackLayout;horizontal=1;startSize=30;horizontalStack=0;resizeParent=1;resizeParentMax=0;resizeLast=0;collapsible=1;marginBottom=0;whiteSpace=wrap;html=1;" vertex="1" parent="X6diNBxR96MAvASZ91UW-57">
          <mxGeometry x="5" y="30" width="160" height="90" as="geometry" />
        </mxCell>
        <mxCell id="X6diNBxR96MAvASZ91UW-28" value="&lt;div&gt;create()&lt;/div&gt;" style="text;strokeColor=none;fillColor=none;align=left;verticalAlign=middle;spacingLeft=4;spacingRight=4;overflow=hidden;points=[[0,0.5],[1,0.5]];portConstraint=eastwest;rotatable=0;whiteSpace=wrap;html=1;" vertex="1" parent="X6diNBxR96MAvASZ91UW-27">
          <mxGeometry y="30" width="160" height="30" as="geometry" />
        </mxCell>
        <mxCell id="X6diNBxR96MAvASZ91UW-31" value="destroy()" style="text;strokeColor=none;fillColor=none;align=left;verticalAlign=middle;spacingLeft=4;spacingRight=4;overflow=hidden;points=[[0,0.5],[1,0.5]];portConstraint=eastwest;rotatable=0;whiteSpace=wrap;html=1;" vertex="1" parent="X6diNBxR96MAvASZ91UW-27">
          <mxGeometry y="60" width="160" height="30" as="geometry" />
        </mxCell>
        <mxCell id="X6diNBxR96MAvASZ91UW-59" value="Entry" style="swimlane;whiteSpace=wrap;html=1;" vertex="1" parent="1">
          <mxGeometry x="300" y="140" width="290" height="250" as="geometry" />
        </mxCell>
        <mxCell id="X6diNBxR96MAvASZ91UW-19" value="Game" style="swimlane;fontStyle=0;childLayout=stackLayout;horizontal=1;startSize=30;horizontalStack=0;resizeParent=1;resizeParentMax=0;resizeLast=0;collapsible=1;marginBottom=0;whiteSpace=wrap;html=1;" vertex="1" parent="X6diNBxR96MAvASZ91UW-59">
          <mxGeometry x="114" y="40" width="160" height="150" as="geometry" />
        </mxCell>
        <mxCell id="X6diNBxR96MAvASZ91UW-20" value="init()" style="text;strokeColor=none;fillColor=none;align=left;verticalAlign=middle;spacingLeft=4;spacingRight=4;overflow=hidden;points=[[0,0.5],[1,0.5]];portConstraint=eastwest;rotatable=0;whiteSpace=wrap;html=1;" vertex="1" parent="X6diNBxR96MAvASZ91UW-19">
          <mxGeometry y="30" width="160" height="30" as="geometry" />
        </mxCell>
        <mxCell id="X6diNBxR96MAvASZ91UW-21" value="handleInput()" style="text;strokeColor=none;fillColor=none;align=left;verticalAlign=middle;spacingLeft=4;spacingRight=4;overflow=hidden;points=[[0,0.5],[1,0.5]];portConstraint=eastwest;rotatable=0;whiteSpace=wrap;html=1;" vertex="1" parent="X6diNBxR96MAvASZ91UW-19">
          <mxGeometry y="60" width="160" height="30" as="geometry" />
        </mxCell>
        <mxCell id="X6diNBxR96MAvASZ91UW-22" value="update(f32)" style="text;strokeColor=none;fillColor=none;align=left;verticalAlign=middle;spacingLeft=4;spacingRight=4;overflow=hidden;points=[[0,0.5],[1,0.5]];portConstraint=eastwest;rotatable=0;whiteSpace=wrap;html=1;" vertex="1" parent="X6diNBxR96MAvASZ91UW-19">
          <mxGeometry y="90" width="160" height="30" as="geometry" />
        </mxCell>
        <mxCell id="X6diNBxR96MAvASZ91UW-23" value="render()" style="text;strokeColor=none;fillColor=none;align=left;verticalAlign=middle;spacingLeft=4;spacingRight=4;overflow=hidden;points=[[0,0.5],[1,0.5]];portConstraint=eastwest;rotatable=0;whiteSpace=wrap;html=1;" vertex="1" parent="X6diNBxR96MAvASZ91UW-19">
          <mxGeometry y="120" width="160" height="30" as="geometry" />
        </mxCell>
        <mxCell id="X6diNBxR96MAvASZ91UW-11" value="entry.hpp" style="rounded=0;whiteSpace=wrap;html=1;fillColor=#a20025;fontColor=#ffffff;strokeColor=#6F0000;" vertex="1" parent="X6diNBxR96MAvASZ91UW-59">
          <mxGeometry x="210" y="210" width="54" height="20" as="geometry" />
        </mxCell>
        <mxCell id="X6diNBxR96MAvASZ91UW-63" style="edgeStyle=orthogonalEdgeStyle;rounded=0;orthogonalLoop=1;jettySize=auto;html=1;startArrow=classic;startFill=1;" edge="1" parent="X6diNBxR96MAvASZ91UW-59" source="X6diNBxR96MAvASZ91UW-3" target="X6diNBxR96MAvASZ91UW-11">
          <mxGeometry relative="1" as="geometry" />
        </mxCell>
        <mxCell id="X6diNBxR96MAvASZ91UW-3" value="Entry" style="rounded=0;whiteSpace=wrap;html=1;" vertex="1" parent="X6diNBxR96MAvASZ91UW-59">
          <mxGeometry x="30" y="210" width="60" height="20" as="geometry" />
        </mxCell>
        <mxCell id="X6diNBxR96MAvASZ91UW-61" value="entry.cpp" style="rounded=0;whiteSpace=wrap;html=1;fillColor=#647687;strokeColor=#314354;fontColor=#ffffff;" vertex="1" parent="1">
          <mxGeometry x="120" y="350" width="70" height="20" as="geometry" />
        </mxCell>
        <mxCell id="X6diNBxR96MAvASZ91UW-64" style="edgeStyle=orthogonalEdgeStyle;rounded=0;orthogonalLoop=1;jettySize=auto;html=1;startArrow=classic;startFill=1;" edge="1" parent="1" source="X6diNBxR96MAvASZ91UW-61" target="X6diNBxR96MAvASZ91UW-3">
          <mxGeometry relative="1" as="geometry">
            <mxPoint x="200" y="359.76" as="sourcePoint" />
            <mxPoint x="320" y="359.76" as="targetPoint" />
          </mxGeometry>
        </mxCell>
      </root>
    </mxGraphModel>
  </diagram>
</mxfile>
